<svg width="396" height="594" viewBox="0 0 396 594" fill="none" xmlns="http://www.w3.org/2000/svg">
  <path d="M112.5 567.33V583.9H25.0801V575.99C25.1001 571.21 28.9801 567.33 33.7601 567.33H112.5Z" fill="#002346"/>
  <path d="M113 584.4H24.5801V575.99C24.6001 570.94 28.7101 566.83 33.7601 566.83H113V584.4ZM25.5801 583.4H112V567.83H33.7601C29.2601 567.83 25.6001 571.49 25.5901 575.99V583.4H25.5801Z" fill="#002346"/>
  <path d="M74.47 496.37H112.47V575.61H25.07C25.07 575.61 24.14 561.21 34.46 556.4C44.78 551.59 66.46 543.19 66.46 543.19L74.47 496.37Z" fill="#DC6803"/>
  <path d="M112.97 576.11H24.6001L24.5701 575.64C24.5701 575.49 23.7401 560.84 34.2501 555.94C43.8501 551.46 63.5101 543.8 66.0201 542.82L74.0501 495.86H112.97V576.1V576.11ZM25.5501 575.11H111.97V496.87H74.8901L66.9001 543.55L66.6401 543.65C66.4201 543.73 44.8601 552.1 34.6701 556.85C25.8101 560.98 25.5101 572.62 25.5501 575.11Z" fill="#002346"/>
  <path d="M148.63 567.33V583.9H236.05V572.98C236.03 569.86 233.5 567.33 230.38 567.33H148.63Z" fill="#002346"/>
  <path d="M236.55 584.4H148.13V566.83H230.38C233.77 566.83 236.53 569.59 236.53 572.98V584.4H236.55ZM149.14 583.4H235.56V572.98C235.54 570.14 233.23 567.83 230.39 567.83H149.14V583.4Z" fill="#002346"/>
  <path d="M186.62 496.37H148.62V575.61H236.01C236.01 575.61 236.95 561.21 226.63 556.4C216.31 551.59 194.63 543.19 194.63 543.19L186.62 496.37Z" fill="#DC6803"/>
  <path d="M236.47 576.11H148.11V495.87H187.03L195.06 542.83C197.57 543.81 217.22 551.47 226.83 555.95C237.34 560.85 236.51 575.5 236.5 575.65L236.47 576.12V576.11ZM149.11 575.11H235.52C235.56 572.63 235.27 560.98 226.41 556.85C216.22 552.1 194.66 543.74 194.44 543.65L194.18 543.55L186.19 496.87H149.11V575.11Z" fill="#002346"/>
  <path d="M299.38 544.46C295.62 544.46 291.13 543.46 285.83 540.57C263.54 528.57 247.71 493.13 238.77 435.12C234.72 407.83 232.42 380.31 231.89 352.72H241.47C242 379.84 244.27 406.89 248.27 433.72C256.62 487.72 271.17 521.72 290.37 532.07C299.31 536.87 303.07 534.17 304.3 533.29C309.12 529.83 316.88 517.16 314.73 471.17C313.8 453.46 311.94 435.81 309.16 418.29L318.63 416.69C321.47 434.59 323.37 452.62 324.32 470.72C326.16 509.84 321.44 532.89 309.9 541.17C306.83 543.36 303.15 544.51 299.38 544.46Z" fill="#002346"/>
  <path d="M299.61 544.96C295.2 544.98 290.48 543.68 285.59 541.01C263.15 528.93 247.23 493.33 238.28 435.2C234.24 407.98 231.92 380.24 231.39 352.73V352.22H241.96V352.71C242.5 379.71 244.78 406.94 248.76 433.65C257.08 487.48 271.55 521.36 290.6 531.63C299.26 536.28 302.83 533.73 304 532.89C308.74 529.49 316.36 516.95 314.22 471.2C313.29 453.58 311.42 435.8 308.66 418.37L308.58 417.88L319.04 416.11L319.12 416.61C321.95 434.45 323.87 452.64 324.82 470.69C326.67 510 321.88 533.18 310.19 541.57C307.08 543.79 303.43 544.96 299.61 544.96ZM232.39 353.22C232.93 380.51 235.24 408.04 239.25 435.05C248.16 492.85 263.9 528.21 286.05 540.13C290.71 542.67 295.19 543.96 299.36 543.96C303.07 544.01 306.58 542.9 309.58 540.76C320.97 532.59 325.62 509.68 323.79 470.74C322.86 452.9 320.97 434.91 318.18 417.26L309.7 418.69C312.43 436 314.27 453.64 315.2 471.13C317.36 517.36 309.46 530.16 304.56 533.68C303.26 534.61 299.31 537.44 290.1 532.49C270.76 522.07 256.12 487.93 247.74 433.78C243.78 407.19 241.49 380.08 240.94 353.2H232.36L232.39 353.22Z" fill="#002346"/>
  <path d="M202.11 466.99C198.18 458.18 201.16 323.73 198.54 301.32C195.92 278.91 187.54 242.2 187.54 242.2L131.59 246.72L74.6703 241.5C74.6703 241.5 67.0303 278.89 64.4103 301.31C61.7903 323.73 65.0603 460.5 61.1403 469.31C57.2203 478.12 59.8003 506.13 68.8603 513.31C77.9203 520.49 114.69 521.31 117.23 513.31C119.77 505.31 122.01 479.69 121.02 468.48C120.03 457.27 129.67 301.32 129.67 301.32H133.28C133.28 301.32 140.47 458.91 139.47 470.12C138.47 481.33 139.03 506.17 141.96 514.17C144.89 522.17 187.45 521.37 197.96 514.17C208.47 506.97 206.03 475.79 202.11 466.99Z" fill="#0D38C7"/>
  <path d="M166.38 520.37C158.76 520.37 151.6 519.65 147.03 518.18C143.93 517.19 142.06 515.89 141.49 514.33C138.43 505.99 138.03 480.62 138.97 470.06C139.93 459.32 133.24 311.41 132.8 301.8H130.14C129.56 311.27 120.57 457.67 121.52 468.42C122.5 479.53 120.33 505.19 117.71 513.45C117.14 515.23 115.13 516.66 111.73 517.7C100.62 521.09 75.9702 519.56 68.5602 513.69C59.5502 506.55 56.6302 478.23 60.6902 469.09C62.8002 464.34 62.7802 420.95 62.7702 378.98C62.7602 344.2 62.7402 311.36 63.9202 301.23C66.5102 279.05 74.1102 241.75 74.1902 241.38L74.2802 240.94L131.65 246.2L187.95 241.64L188.05 242.06C188.13 242.43 196.47 279.05 199.06 301.23C200.24 311.31 200.29 343.49 200.34 377.57C200.4 419.08 200.47 461.99 202.59 466.76C206.78 476.17 208.98 507.22 198.27 514.56C192.66 518.4 178.91 520.36 166.41 520.36L166.38 520.37ZM129.2 300.81H133.76L133.78 301.29C134.07 307.73 140.96 459.04 139.97 470.16C138.92 481.94 139.6 506.27 142.43 513.99C142.88 515.23 144.58 516.35 147.33 517.23C159.06 520.98 189.07 519.64 197.67 513.75C208.09 506.61 205.31 475.42 201.65 467.19C199.44 462.23 199.37 419.21 199.31 377.6C199.26 343.55 199.21 311.39 198.04 301.38C195.6 280.54 188.08 246.89 187.14 242.74L131.62 247.23L75.0602 242.05C74.2002 246.32 67.3302 280.54 64.9002 301.38C63.7202 311.44 63.7402 344.26 63.7502 379.01C63.7702 421.08 63.7902 464.59 61.5902 469.53C57.6302 478.44 60.4202 506.01 69.1602 512.93C76.3802 518.65 100.51 520.1 111.42 516.77C114.45 515.84 116.29 514.6 116.74 513.17C119.33 505 121.48 479.56 120.51 468.54C119.53 457.42 128.77 307.67 129.16 301.31L129.19 300.84L129.2 300.81Z" fill="#002346"/>
  <path d="M220.67 374.36C213.88 374.36 207.72 369.93 203.33 361.88C199.44 354.75 197.33 345.38 197.33 335.49C197.33 325.6 199.47 316.22 203.33 309.1C207.72 301.04 213.88 296.61 220.67 296.61C227.46 296.61 233.67 301.04 238.02 309.1C241.91 316.22 244.02 325.6 244.02 335.49C244.02 345.38 241.89 354.75 238.02 361.88C233.63 369.93 227.47 374.36 220.67 374.36ZM220.67 306.22C217.6 306.22 214.35 308.94 211.76 313.69C208.68 319.35 206.91 327.29 206.91 335.49C206.91 343.69 208.68 351.62 211.76 357.28C214.35 362.03 217.6 364.76 220.67 364.76C223.74 364.76 227 362.03 229.59 357.28C232.67 351.62 234.47 343.72 234.47 335.49C234.47 327.26 232.7 319.35 229.62 313.69C227 308.94 223.75 306.22 220.67 306.22Z" fill="#002346"/>
  <path d="M220.67 374.86C213.69 374.86 207.37 370.34 202.89 362.12C198.98 354.96 196.83 345.5 196.83 335.49C196.83 325.48 198.98 316.07 202.89 308.86C207.37 300.64 213.68 296.11 220.67 296.11C227.66 296.11 234.02 300.64 238.46 308.86C242.37 316.01 244.52 325.47 244.52 335.49C244.52 345.51 242.37 354.92 238.46 362.12C233.98 370.34 227.66 374.86 220.67 374.86ZM220.67 297.11C214.07 297.11 208.06 301.45 203.77 309.34C199.94 316.4 197.83 325.69 197.83 335.49C197.83 345.29 199.94 354.62 203.77 361.64C208.07 369.52 214.07 373.86 220.67 373.86C227.27 373.86 233.28 369.52 237.58 361.64C241.41 354.58 243.52 345.3 243.52 335.49C243.52 325.68 241.41 316.35 237.58 309.34C233.32 301.45 227.32 297.11 220.67 297.11ZM220.67 365.26C217.41 365.26 214 362.44 211.32 357.52C208.2 351.79 206.41 343.76 206.41 335.49C206.41 327.22 208.2 319.19 211.32 313.45C214 308.54 217.41 305.72 220.67 305.72C223.93 305.72 227.35 308.54 230.06 313.45C233.18 319.19 234.97 327.22 234.97 335.49C234.97 343.76 233.17 351.75 230.03 357.52C227.35 362.44 223.94 365.26 220.67 365.26ZM220.67 306.72C217.78 306.72 214.7 309.35 212.2 313.93C209.16 319.52 207.41 327.38 207.41 335.49C207.41 343.6 209.16 351.45 212.2 357.04C214.7 361.63 217.79 364.26 220.67 364.26C223.55 364.26 226.65 361.63 229.15 357.04C232.21 351.41 233.97 343.56 233.97 335.49C233.97 327.42 232.22 319.52 229.18 313.93C226.65 309.35 223.55 306.72 220.67 306.72Z" fill="#002346"/>
  <path d="M154.07 100.01L148.1 71.2002H113.28L107.32 100.01L88.0698 106.82L130.69 116.82L173.32 106.82L154.07 100.01Z" fill="#F2B3C1"/>
  <path d="M130.69 117.33L86.2998 106.91L106.89 99.6302L112.88 70.7002H148.51L154.51 99.6302L175.1 106.91L130.7 117.33H130.69ZM89.8398 106.72L130.69 116.3L171.55 106.72L153.64 100.39L147.7 71.7002H113.69L107.76 100.39L89.8498 106.72H89.8398Z" fill="#002346"/>
  <path d="M59.66 105.041C59.66 105.041 27.03 129.591 4.70996 165.381C-15.18 197.271 48.05 234.601 48.05 234.601L65.41 215.501L46.29 183.141L62.91 165.501C64.51 180.021 65.97 191.401 65.97 191.401C65.97 191.401 69.19 235.861 71.14 243.671C73.09 251.481 116.99 250.311 131.31 249.101L131.22 104.021L111.86 91.2705C111.86 91.2705 63.55 98.4405 59.66 105.041Z" fill="#0D38C7"/>
  <path d="M107.11 250.45C90.5798 250.45 71.9998 249.16 70.6498 243.79C68.7098 236.03 65.5998 193.25 65.4698 191.44C65.4598 191.36 64.0698 180.48 62.5298 166.63L46.9098 183.21L66.0298 215.56L48.1498 235.23L47.7998 235.02C47.3998 234.78 7.45984 210.95 1.18984 185.3C-0.580163 178.05 0.459835 171.25 4.28984 165.11C25.8798 130.48 57.5098 106.05 59.2898 104.69C63.5998 97.9902 109.82 91.0602 111.79 90.7702L111.98 90.7402L131.72 103.74V104.01L131.81 249.55L131.35 249.59C127.6 249.91 117.79 250.44 107.11 250.44V250.45ZM63.2898 164.37L63.4098 165.45C64.9898 179.8 66.4498 191.23 66.4698 191.34C66.4998 191.81 69.7098 235.87 71.6298 243.55C73.3698 250.53 113.71 250.03 130.81 248.64L130.72 104.29L111.74 91.7902C95.0598 94.2802 63.0598 100.25 60.0898 105.29L59.9598 105.44C59.6298 105.69 27.1498 130.35 5.12983 165.65C1.43983 171.56 0.439836 178.1 2.14984 185.08C8.00984 209.05 44.0098 231.57 47.9498 233.97L64.7898 215.45L45.6698 183.08L63.2898 164.38V164.37Z" fill="#002346"/>
  <path d="M244.07 199.07C239 157.2 204.32 105.07 204.32 105.07C200.43 98.4698 150.92 91.2998 150.92 91.2998L131.76 103.97L131.22 104.05L131.76 249.13C148.9 249.66 190.05 250.03 192 242.23C193.95 234.43 195.73 212.17 195.73 212.17C195.73 212.17 196.9 202.76 198.41 189.51L206.64 209.44L213.11 271.74H241.16C241.16 271.74 249.18 241.25 244.07 199.07Z" fill="#0D38C7"/>
  <path d="M241.54 272.24H212.65L206.14 209.56L198.68 191.49C197.29 203.58 196.23 212.14 196.22 212.23C196.2 212.43 194.42 234.6 192.48 242.35C190.43 250.55 149.32 250.18 131.74 249.63H131.26L130.72 103.62L131.58 103.49L150.81 90.7803L151 90.8103C153.03 91.1003 200.79 98.0903 204.76 104.82C205.09 105.32 239.55 157.51 244.58 199.01C249.64 240.8 241.74 271.56 241.66 271.87L241.56 272.24H241.54ZM213.56 271.24H240.77C241.65 267.63 248.31 238.24 243.57 199.13C238.57 157.86 204.25 105.87 203.9 105.35C200.81 100.11 164.88 93.8403 151.03 91.8303L131.94 104.46L131.72 104.49L132.26 248.65C160 249.48 189.99 248.2 191.52 242.11C193.44 234.44 195.22 212.35 195.24 212.13C195.25 212.01 196.43 202.55 197.92 189.45L198.14 187.53L207.14 209.39L213.56 271.24Z" fill="#002346"/>
  <path d="M154.47 37.9793C154.47 38.3993 154.47 38.8193 154.46 39.2293C154.44 39.8893 154.41 40.7893 154.38 41.8693C154.23 46.2493 153.97 53.6092 153.63 60.2092C153.31 66.3392 152.91 71.7992 152.46 73.5992C151.25 78.4092 139.25 84.4093 131.25 84.4093C123.25 84.4093 111.24 78.3992 110.04 73.5992C109.58 71.8492 109.19 66.6592 108.88 60.7692C108.53 54.2592 108.27 46.8892 108.13 42.3392C108.09 41.0492 108.06 39.9793 108.04 39.2293V37.9793C108.3 25.5293 118.33 15.4993 130.77 15.2393C143.59 14.9793 154.2 25.1493 154.47 37.9793Z" fill="#F2B3C1"/>
  <path d="M131.25 84.9095C122.95 84.9095 110.78 78.6395 109.56 73.7195C109.15 72.1595 108.75 67.8095 108.39 60.7995C108.02 53.8695 107.76 46.2695 107.64 42.3595C107.6 41.0695 107.57 39.9995 107.55 39.2495V37.9895C107.82 25.2195 118.02 15.0195 130.77 14.7495C143.83 14.4995 154.71 24.9095 154.98 37.9795C154.98 38.4195 154.98 38.8395 154.97 39.2495L154.89 41.8895C154.71 47.1495 154.46 53.9895 154.14 60.2395C153.76 67.5795 153.36 72.1095 152.96 73.7295C151.7 78.7495 139.73 84.9195 131.27 84.9195L131.25 84.9095ZM131.25 15.7395C131.09 15.7395 130.94 15.7395 130.78 15.7395C118.56 15.9895 108.8 25.7695 108.54 37.9895V39.2295C108.56 39.9695 108.59 41.0395 108.63 42.3195C108.73 45.4695 108.99 53.5595 109.38 60.7395C109.75 67.6895 110.13 71.9695 110.52 73.4695C111.64 77.9595 123.46 83.9095 131.25 83.9095C139.04 83.9095 150.85 77.9595 151.98 73.4795C152.36 71.9495 152.76 67.3595 153.14 60.1895C153.46 53.9395 153.71 47.1095 153.89 41.8595L153.97 39.2195C153.98 38.8195 153.98 38.3995 153.98 37.9895C153.72 25.6295 143.57 15.7395 131.26 15.7395H131.25Z" fill="#002346"/>
  <path d="M109.92 87.4297L131.22 104.02L119.02 113.76L96.6401 94.0097L109.92 87.4297Z" fill="white"/>
  <path d="M119 114.41L95.75 93.8898L109.98 86.8398L132.03 104.01L119.01 114.41H119ZM97.52 94.1199L119.03 113.1L130.41 104.02L109.86 88.0098L97.53 94.1199H97.52Z" fill="#002346"/>
  <path d="M131.22 104.02L151.54 85.8604L164.05 93.4004L143.76 113.76L131.22 104.02Z" fill="white"/>
  <path d="M143.8 114.42L130.44 104.04L151.48 85.2305L164.85 93.2905L143.8 114.42ZM132 103.99L143.72 113.09L163.25 93.4905L151.6 86.4705L132 103.98V103.99Z" fill="#002346"/>
  <path d="M132.1 257.19H130.49V105.04L132.25 105.06L132.1 257.19Z" fill="#002346"/>
  <path d="M108.47 49.7203C108.47 49.7203 109.15 34.1003 111.82 30.0103C111.82 30.0103 117.16 22.4303 131.03 22.4303C144.9 22.4303 151.54 30.0103 151.54 30.0103C151.54 30.0103 154.47 50.6903 153.47 53.7203C153.47 53.7203 153.82 44.5403 156.96 41.9103C156.96 41.9103 157.51 22.8303 147.9 16.8303C138.29 10.8303 110.79 13.8303 108.08 21.9003C105.37 29.9703 104.86 43.7203 104.86 43.7203C104.86 43.7203 108.61 47.1103 108.47 49.7203Z" fill="#002346"/>
  <path d="M108.88 60.7695C97.2903 55.9295 98.3603 42.8295 104.35 41.8795C106.13 41.5995 107.32 41.8395 108.13 42.3395C108.27 46.8895 108.53 54.2595 108.88 60.7695Z" fill="#F2B3C1"/>
  <path d="M109.42 61.5396L108.69 61.2296C101.58 58.2596 98.9701 52.1396 99.5401 47.3896C99.9301 44.1396 101.79 41.7796 104.28 41.3796C106 41.1096 107.39 41.2896 108.4 41.9096L108.63 42.0496V42.3196C108.73 45.4696 109 53.5596 109.39 60.7396L109.43 61.5296L109.42 61.5396ZM105.75 42.2596C105.34 42.2596 104.9 42.2996 104.43 42.3696C102.4 42.6896 100.86 44.7096 100.53 47.5096C100.03 51.7196 102.27 57.1096 108.34 59.9796C108 53.4396 107.76 46.4696 107.64 42.6396C107.13 42.3896 106.5 42.2596 105.75 42.2596Z" fill="#002346"/>
  <path d="M153.63 60.2091C153.97 53.6091 154.23 46.2491 154.38 41.8691C155.06 41.7291 155.91 41.7091 156.96 41.8791C162.73 42.7891 163.93 54.9991 153.63 60.2091Z" fill="#F2B3C1"/>
  <path d="M153.08 61.0495L153.12 60.1895C153.44 53.9395 153.69 47.1095 153.87 41.8595V41.4695L154.27 41.3895C155.07 41.2295 155.99 41.2295 157.03 41.3895C159.43 41.7695 161.22 43.9295 161.71 47.0195C162.41 51.4695 160.25 57.4195 153.84 60.6595L153.07 61.0495H153.08ZM154.86 42.2995C154.69 47.2495 154.46 53.5095 154.17 59.3495C159.53 56.2695 161.34 51.0895 160.73 47.1695C160.31 44.5195 158.84 42.6795 156.88 42.3695C156.13 42.2495 155.45 42.2195 154.86 42.2895V42.2995Z" fill="#002346"/>
  <path d="M106.84 29.9794C106.84 29.9794 103.04 18.1294 103.75 12.3294C104.46 6.52935 128.75 0.729353 134.2 1.23935C139.65 1.74935 158.08 9.36935 158.91 13.5894C160.1 19.6494 156.67 29.9794 156.67 29.9794H106.84Z" fill="#0D38C7"/>
  <path d="M157.03 30.4798H106.47L106.36 30.1298C106.2 29.6398 102.53 18.1098 103.25 12.2698C104.04 5.83978 129.11 0.259785 134.24 0.739785C139.56 1.23978 158.47 8.77978 159.39 13.4898C160.59 19.6098 157.28 29.7098 157.13 30.1298L157.02 30.4698L157.03 30.4798ZM107.21 29.4798H156.31C156.88 27.6498 159.46 18.9398 158.42 13.6898C157.71 10.0498 140.01 2.28978 134.15 1.73978C128.51 1.21978 104.9 7.04978 104.24 12.3898C103.62 17.4698 106.59 27.4898 107.2 29.4798H107.21Z" fill="#002346"/>
  <path d="M106.84 29.9795C106.84 29.9795 101.22 34.8995 101.61 37.2995C102 39.6995 157 37.2995 159.92 37.2995C162.84 37.2995 156.67 29.9795 156.67 29.9795H106.84Z" fill="#0D38C7"/>
  <path d="M115.97 38.8597C102.93 38.8597 101.24 38.1697 101.11 37.3697C100.69 34.7697 105.91 30.1197 106.5 29.5897L106.64 29.4697H156.89L157.04 29.6497C158.18 30.9997 161.83 35.5297 161.08 37.1497C160.97 37.3897 160.67 37.7897 159.91 37.7897C159.42 37.7897 157.44 37.8597 154.45 37.9597C135.98 38.5997 123.88 38.8497 115.97 38.8497V38.8597ZM102.09 37.0997C103.87 38.1497 121.47 38.1097 154.42 36.9697C157.42 36.8697 159.41 36.7997 159.92 36.7997C160.06 36.7997 160.17 36.7697 160.18 36.7397C160.5 36.0597 158.52 32.9897 156.43 30.4797H107.02C104.98 32.2997 102 35.5397 102.08 37.1097L102.09 37.0997Z" fill="#002346"/>
  <path d="M63.8597 217.15C63.8597 217.15 77.6697 212.43 80.8597 212.15C84.0497 211.87 90.4597 214.95 91.7997 215.62C93.1397 216.29 98.3297 217.88 98.1997 218.68C98.0697 219.48 94.3297 220.95 86.7297 219.49C86.7297 219.49 95.3997 223.89 96.8697 224.95C98.3397 226.01 96.1997 227.89 92.1997 227.36C89.3697 226.94 86.5597 226.36 83.7897 225.62C83.7897 225.62 93.8697 230.82 95.4697 231.36C97.0697 231.9 96.9997 234.59 88.1997 233.09C85.6397 232.51 83.1397 231.71 80.7297 230.69C80.7297 230.69 86.3297 235.76 88.4597 236.96C90.5897 238.16 86.3297 239.36 83.7897 238.83C81.2497 238.3 71.7897 234.03 70.5897 233.23C69.3897 232.43 61.3197 237.63 57.6797 235.36C55.4497 233.9 53.7797 231.74 52.9297 229.22L63.8597 217.15Z" fill="#F2B3C1"/>
  <path d="M85.1799 239.45C84.6399 239.45 84.1199 239.4 83.6899 239.31C81.1299 238.78 71.6199 234.51 70.3099 233.64C69.9799 233.52 68.4299 234.11 67.1899 234.58C64.1199 235.74 59.9199 237.34 57.4099 235.77C55.0899 234.25 53.3299 231.98 52.4499 229.37L52.3599 229.09L63.5699 216.71L63.6899 216.67C64.2599 216.48 77.5899 211.93 80.8099 211.65C84.1799 211.35 90.7399 214.53 92.0199 215.17C92.4099 215.36 93.1899 215.66 94.0099 215.97C97.6999 217.36 98.8199 217.93 98.6899 218.76C98.6499 219.04 98.4599 219.29 98.1299 219.52C97.1999 220.17 94.4799 220.96 89.6799 220.44C92.3699 221.83 96.1999 223.85 97.1599 224.54C97.7599 224.97 97.9799 225.59 97.7399 226.2C97.2899 227.33 95.2199 228.26 92.1399 227.86C90.6699 227.64 89.1899 227.38 87.7299 227.07C90.7699 228.61 94.7099 230.58 95.6399 230.89C96.4499 231.16 96.9099 231.85 96.7399 232.52C96.3499 234.07 93.2099 234.46 88.1199 233.59C86.4299 233.21 84.7699 232.73 83.1499 232.16C84.9499 233.72 87.4699 235.83 88.7099 236.53C89.6499 237.06 89.5999 237.65 89.4799 237.96C89.1099 238.96 86.9999 239.46 85.1799 239.46V239.45ZM70.2299 232.64C70.4899 232.64 70.6999 232.69 70.8699 232.81C71.9399 233.52 81.3499 237.81 83.8899 238.34C85.8799 238.75 88.3099 238.03 88.5299 237.62C88.5099 237.62 88.4399 237.53 88.2099 237.4C86.0599 236.19 80.6199 231.27 80.3899 231.07L78.2099 229.1L80.9199 230.24C83.2999 231.24 85.7899 232.04 88.3099 232.61C94.0799 233.59 95.6599 232.68 95.7599 232.28C95.7899 232.15 95.6199 231.95 95.3099 231.84C93.6899 231.29 83.9699 226.28 83.5599 226.07L79.4599 223.96L83.9099 225.15C86.6499 225.88 89.4599 226.46 92.2699 226.88C95.0399 227.25 96.5899 226.39 96.8099 225.85C96.8399 225.78 96.9099 225.61 96.5799 225.37C95.1599 224.34 86.5899 219.99 86.5099 219.95L83.3399 218.34L86.8299 219.01C93.5599 220.3 96.9899 219.21 97.6299 218.67C97.0799 218.21 94.8899 217.38 93.6699 216.92C92.7799 216.58 92.0199 216.29 91.5799 216.08C90.8199 215.7 84.0899 212.38 80.9099 212.66C77.9699 212.92 65.5199 217.13 64.1499 217.59L53.5099 229.34C54.3499 231.63 55.9199 233.61 57.9599 234.95C60.0399 236.25 63.9699 234.75 66.8399 233.66C68.4999 233.03 69.5399 232.65 70.2299 232.65V232.64Z" fill="#002346"/>
  <path d="M97.1199 125.021L103.91 126.191L98.8499 130.87L99.8399 137.68L93.8299 134.311L87.6499 137.361L88.9899 130.601L84.1899 125.671L91.0299 124.861L94.2399 118.771L97.1199 125.021Z" fill="white"/>
  <path d="M100.48 138.611L93.8099 134.871L86.9599 138.251L88.4499 130.751L83.1299 125.281L90.7199 124.381L94.2799 117.631L97.4699 124.561L105 125.861L99.3899 131.051L100.49 138.601L100.48 138.611ZM93.8399 133.741L99.1899 136.741L98.3099 130.671L102.82 126.501L96.7699 125.461L94.1999 119.891L91.3399 125.321L85.2499 126.041L89.5299 130.431L88.3399 136.451L93.8499 133.731L93.8399 133.741Z" fill="#002346"/>
  <path d="M95.2502 118.18C95.2502 118.73 94.8002 119.18 94.2502 119.18C93.7002 119.18 93.2502 118.73 93.2502 118.18C93.2302 117.63 93.6702 117.17 94.2202 117.15C94.7702 117.13 95.2302 117.57 95.2502 118.12V118.18Z" fill="white"/>
  <path d="M94.25 119.68C93.42 119.68 92.75 119.01 92.75 118.18C92.74 117.79 92.88 117.41 93.16 117.12C93.43 116.83 93.81 116.66 94.21 116.65C94.6 116.65 94.99 116.78 95.28 117.06C95.57 117.33 95.74 117.71 95.75 118.11V118.19C95.75 119.02 95.08 119.69 94.25 119.69V119.68ZM94.25 117.65C94.25 117.65 94.24 117.65 94.23 117.65C94.1 117.65 93.97 117.71 93.88 117.81C93.79 117.91 93.74 118.03 93.74 118.17C93.74 118.46 93.96 118.69 94.24 118.69C94.52 118.69 94.74 118.47 94.74 118.19V118.13C94.74 118.01 94.68 117.89 94.58 117.8C94.49 117.71 94.37 117.66 94.24 117.66L94.25 117.65Z" fill="#002346"/>
  <path d="M104.91 126.16C104.91 126.71 104.46 127.16 103.91 127.16C103.36 127.16 102.91 126.71 102.91 126.16C102.91 125.61 103.36 125.16 103.91 125.16C104.46 125.16 104.91 125.61 104.91 126.16Z" fill="white"/>
  <path d="M103.91 127.66C103.08 127.66 102.41 126.99 102.41 126.16C102.41 125.33 103.08 124.66 103.91 124.66C104.74 124.66 105.41 125.33 105.41 126.16C105.41 126.99 104.74 127.66 103.91 127.66ZM103.91 125.66C103.63 125.66 103.41 125.88 103.41 126.16C103.41 126.44 103.63 126.66 103.91 126.66C104.19 126.66 104.41 126.44 104.41 126.16C104.41 125.88 104.19 125.66 103.91 125.66Z" fill="#002346"/>
  <path d="M85.0602 125.781C85.0702 126.331 84.6402 126.791 84.0802 126.801C83.5302 126.811 83.0702 126.381 83.0602 125.831C83.0502 125.281 83.4802 124.821 84.0402 124.811C84.5902 124.801 85.0502 125.231 85.0602 125.781Z" fill="white"/>
  <path d="M84.0601 127.301C83.6701 127.301 83.3101 127.151 83.0301 126.891C82.7401 126.611 82.5701 126.241 82.5601 125.841C82.5601 125.441 82.7001 125.061 82.9701 124.771C83.2401 124.481 83.6201 124.311 84.0201 124.301C84.4101 124.301 84.8001 124.441 85.0901 124.711C85.3801 124.991 85.5501 125.361 85.5601 125.761C85.5801 126.591 84.9201 127.281 84.1001 127.301C84.0901 127.301 84.0701 127.301 84.0601 127.301ZM84.0601 125.301C84.0601 125.301 84.0601 125.301 84.0501 125.301C83.9201 125.301 83.7901 125.361 83.7001 125.461C83.6101 125.561 83.5601 125.681 83.5601 125.821C83.5601 126.101 83.7601 126.341 84.0701 126.311C84.3501 126.311 84.5601 126.071 84.5601 125.801C84.5601 125.671 84.5001 125.541 84.4001 125.451C84.3101 125.361 84.1901 125.311 84.0601 125.311V125.301Z" fill="#002346"/>
  <path d="M100.89 137.651C100.89 138.201 100.44 138.651 99.89 138.651C99.34 138.671 98.88 138.231 98.86 137.681C98.84 137.131 99.28 136.671 99.83 136.651C100.38 136.621 100.86 137.041 100.89 137.591C100.89 137.611 100.89 137.631 100.89 137.651Z" fill="white"/>
  <path d="M99.8398 139.15C99.4698 139.15 99.1098 139.011 98.8298 138.741C98.5398 138.471 98.3698 138.091 98.3598 137.691C98.3398 136.861 98.9898 136.171 99.8198 136.141C100.64 136.101 101.34 136.721 101.39 137.551V137.641C101.39 138.481 100.7 139.151 99.8498 139.141L99.8398 139.15ZM99.8798 137.15C99.8798 137.15 99.8598 137.15 99.8498 137.15C99.5598 137.15 99.3398 137.391 99.3498 137.671C99.3498 137.801 99.4098 137.931 99.5098 138.021C99.6098 138.111 99.7298 138.161 99.8698 138.161C100.16 138.161 100.39 137.941 100.39 137.661H100.89L100.39 137.631C100.37 137.361 100.15 137.15 99.8898 137.15H99.8798Z" fill="#002346"/>
  <path d="M88.77 137.221C88.77 137.771 88.32 138.221 87.77 138.221C87.22 138.221 86.77 137.771 86.77 137.221C86.77 136.671 87.22 136.221 87.77 136.221C88.32 136.221 88.77 136.671 88.77 137.221Z" fill="white"/>
  <path d="M87.77 138.721C86.94 138.721 86.27 138.051 86.27 137.221C86.27 136.391 86.94 135.721 87.77 135.721C88.6 135.721 89.27 136.391 89.27 137.221C89.27 138.051 88.6 138.721 87.77 138.721ZM87.77 136.721C87.49 136.721 87.27 136.941 87.27 137.221C87.27 137.501 87.49 137.721 87.77 137.721C88.05 137.721 88.27 137.501 88.27 137.221C88.27 136.941 88.05 136.721 87.77 136.721Z" fill="#002346"/>
  <path d="M68.7899 212.14L46.5499 236.6L35.9199 228.24L59.9299 203.43L68.7899 212.14Z" fill="white"/>
  <path d="M46.5999 237.28L35.1699 228.29L59.9199 202.72L69.4799 212.12L46.5999 237.28ZM36.6599 228.19L46.4899 235.92L68.0899 212.16L59.9299 204.14L36.6599 228.19Z" fill="#002346"/>
  <path d="M190.63 243.67H71.1401V255.59H190.63V243.67Z" fill="#E1E1E2"/>
  <path d="M191.13 256.09H70.6401V243.17H191.13V256.09ZM71.6401 255.09H190.13V244.17H71.6401V255.09Z" fill="#002346"/>
  <path d="M166.47 234.6H184.61C186.93 234.6 188.81 236.48 188.81 238.8V276.32C188.81 280.49 185.43 283.86 181.27 283.86H166.64C162.47 283.86 159.1 280.48 159.1 276.32V238.76C159.1 236.45 160.98 234.57 163.29 234.58H166.48L166.47 234.6Z" fill="#DC6803"/>
  <path d="M181.26 284.37H166.63C162.19 284.37 158.59 280.76 158.59 276.33V238.77C158.59 237.52 159.08 236.34 159.97 235.46C160.85 234.58 162.03 234.09 163.27 234.09H166.47H184.61C187.2 234.09 189.31 236.2 189.31 238.79V276.31C189.31 280.75 185.7 284.35 181.27 284.35L181.26 284.37ZM163.26 235.09C162.28 235.09 161.36 235.47 160.66 236.16C159.96 236.86 159.58 237.78 159.58 238.77V276.33C159.58 280.21 162.74 283.37 166.62 283.37H181.25C185.13 283.37 188.29 280.21 188.29 276.33V238.81C188.29 236.77 186.63 235.11 184.59 235.11H163.27C163.27 235.11 163.27 235.11 163.26 235.11V235.09Z" fill="#002346"/>
  <path d="M174.86 254.57L160.25 237.31L161.17 236.53L174.81 252.64L186.85 236.56L187.82 237.28L174.86 254.57Z" fill="#002346"/>
  <path d="M138.83 241.76H126.16C123.029 241.76 120.49 244.298 120.49 247.43V251.87C120.49 255.001 123.029 257.54 126.16 257.54H138.83C141.962 257.54 144.5 255.001 144.5 251.87V247.43C144.5 244.298 141.962 241.76 138.83 241.76Z" fill="white"/>
  <path d="M138.83 258.04H126.16C122.76 258.04 119.99 255.27 119.99 251.87V247.43C119.99 244.03 122.76 241.26 126.16 241.26H138.83C142.23 241.26 145 244.03 145 247.43V251.87C145 255.27 142.23 258.04 138.83 258.04ZM126.16 242.26C123.31 242.26 120.99 244.58 120.99 247.43V251.87C120.99 254.72 123.31 257.04 126.16 257.04H138.83C141.68 257.04 144 254.72 144 251.87V247.43C144 244.58 141.68 242.26 138.83 242.26H126.16Z" fill="#002346"/>
  <path d="M215.08 281.17C215.08 281.17 206.93 296.29 206.47 301.88C206.01 307.47 216.38 297.48 216.38 297.48C216.38 297.48 217.97 298.65 217.38 304.78C216.94 309.78 210.86 310.21 211.49 314.69C212.12 319.17 238.21 310.76 239.2 304.18C240.19 297.6 236.66 281.09 236.66 281.09L215.08 281.17Z" fill="#F2B3C1"/>
  <path d="M214.4 316.45C214.4 316.45 214.37 316.45 214.35 316.45C212.28 316.45 211.15 315.87 211 314.76C210.64 312.2 212.25 310.81 213.81 309.47C215.23 308.25 216.69 306.98 216.89 304.74C217.28 300.68 216.69 298.91 216.33 298.23C214.46 299.99 208.91 304.93 206.82 303.93C206.18 303.63 205.9 302.92 205.99 301.83C206.45 296.2 214.32 281.54 214.66 280.92L214.8 280.66L237.08 280.58L237.16 280.98C237.31 281.66 240.7 297.65 239.71 304.25C238.85 309.97 221.27 316.44 214.42 316.45H214.4ZM216.34 296.83L216.68 297.08C216.87 297.22 218.48 298.6 217.88 304.83C217.65 307.48 215.95 308.94 214.46 310.23C212.98 311.5 211.71 312.61 211.99 314.62C212.09 315.36 213.68 315.45 214.36 315.45C214.38 315.45 214.4 315.45 214.41 315.45C221.36 315.45 237.99 308.89 238.71 304.11C239.59 298.26 236.78 284.15 236.26 281.6L215.39 281.68C214.31 283.71 207.39 296.91 206.98 301.93C206.95 302.28 206.95 302.9 207.24 303.04C208.47 303.62 213.13 299.94 216.04 297.13L216.34 296.84V296.83Z" fill="#002346"/>
  <path d="M243.77 282.68L210.72 283.19L209.55 269.72L244.07 270.26L243.77 282.68Z" fill="white"/>
  <path d="M210.26 283.69L209 269.2L244.58 269.76L244.26 283.16L210.26 283.68V283.69ZM210.09 270.22L211.17 282.67L243.27 282.17L243.55 270.73L210.09 270.21V270.22Z" fill="#002346"/>
  <path d="M130.72 21.6606C137.22 21.5706 138.1 11.8706 138.1 11.8706C136.12 12.1806 134.96 10.0206 134.96 10.0206C133.26 10.1406 131.64 9.32062 130.72 7.89062C129.8 9.32062 128.18 10.1406 126.48 10.0206C126.48 10.0206 125.32 12.1806 123.34 11.8706C123.34 11.8706 124.22 21.5706 130.72 21.6606Z" fill="white"/>
  <path d="M130.72 22.1604H130.71C123.83 22.0604 122.87 12.3304 122.83 11.9204L122.77 11.2804L123.4 11.3804C125.01 11.6304 126.01 9.81039 126.02 9.79039L126.17 9.51039L126.49 9.53039C128 9.64039 129.45 8.91039 130.28 7.63039L130.43 7.40039H130.98L131.14 7.63039C131.96 8.91039 133.4 9.64039 134.93 9.53039L135.25 9.51039L135.4 9.79039C135.4 9.79039 136.42 11.6304 138.02 11.3804L138.65 11.2804L138.59 11.9204C138.55 12.3304 137.59 22.0704 130.72 22.1604ZM123.9 12.4004C124.21 14.4204 125.62 21.0904 130.71 21.1604C135.8 21.0904 137.21 14.4104 137.52 12.4004C136.03 12.3104 135.05 11.0904 134.68 10.5304C133.12 10.5104 131.69 9.88039 130.71 8.72039C129.73 9.86039 128.3 10.5304 126.79 10.5304C126.77 10.5304 126.76 10.5304 126.74 10.5304C126.37 11.0904 125.39 12.3004 123.9 12.4004Z" fill="#002346"/>
  <path d="M45.0003 230.23C46.4804 230.23 47.6803 229.03 47.6803 227.55C47.6803 226.07 46.4804 224.87 45.0003 224.87C43.5202 224.87 42.3203 226.07 42.3203 227.55C42.3203 229.03 43.5202 230.23 45.0003 230.23Z" fill="#E1E1E2"/>
  <path d="M45.0101 230.73C43.8501 230.73 42.7301 230.09 42.1701 228.99C41.3801 227.43 42.0101 225.51 43.5701 224.72C44.3301 224.34 45.1901 224.27 46.0001 224.54C46.8101 224.8 47.4601 225.37 47.8501 226.13C48.6401 227.69 48.0101 229.61 46.4501 230.4C45.9901 230.63 45.5001 230.74 45.0201 230.74L45.0101 230.73ZM45.0101 225.37C44.6701 225.37 44.3401 225.45 44.0301 225.61C43.5101 225.87 43.1201 226.32 42.9401 226.88C42.7601 227.43 42.8001 228.02 43.0701 228.54C43.3401 229.06 43.7801 229.45 44.3401 229.63C44.8901 229.81 45.4901 229.77 46.0001 229.5C46.5201 229.24 46.9101 228.79 47.0901 228.23C47.2701 227.68 47.2301 227.09 46.9601 226.57C46.6901 226.05 46.2501 225.66 45.6901 225.48C45.4701 225.41 45.2401 225.37 45.0101 225.37Z" fill="#002346"/>
  <path d="M214.73 279.4C216.21 279.4 217.41 278.2 217.41 276.72C217.41 275.24 216.21 274.04 214.73 274.04C213.25 274.04 212.05 275.24 212.05 276.72C212.05 278.2 213.25 279.4 214.73 279.4Z" fill="#E1E1E2"/>
  <path d="M214.74 279.9C214.55 279.9 214.37 279.88 214.18 279.85C212.45 279.55 211.3 277.89 211.6 276.17C211.9 274.44 213.56 273.29 215.28 273.59C216.12 273.74 216.85 274.2 217.33 274.9C217.82 275.6 218 276.44 217.86 277.28C217.71 278.12 217.25 278.85 216.55 279.33C216.01 279.71 215.38 279.91 214.73 279.91L214.74 279.9ZM212.59 276.34C212.38 277.52 213.18 278.66 214.36 278.86C214.93 278.96 215.51 278.83 215.99 278.5C216.47 278.17 216.78 277.67 216.89 277.09C217.1 275.91 216.31 274.77 215.12 274.56C213.94 274.36 212.8 275.14 212.6 276.33L212.59 276.34Z" fill="#002346"/>
  <path d="M138.1 137.85C139.624 137.85 140.86 136.614 140.86 135.09C140.86 133.566 139.624 132.33 138.1 132.33C136.576 132.33 135.34 133.566 135.34 135.09C135.34 136.614 136.576 137.85 138.1 137.85Z" fill="white"/>
  <path d="M138.1 138.35C137.27 138.35 136.43 138.03 135.79 137.4C134.52 136.13 134.52 134.06 135.79 132.79C137.06 131.52 139.13 131.52 140.4 132.79C141.67 134.06 141.67 136.13 140.4 137.4C139.76 138.04 138.93 138.35 138.09 138.35H138.1ZM136.5 133.49C135.62 134.37 135.62 135.81 136.5 136.69C137.38 137.57 138.82 137.57 139.7 136.69C140.58 135.81 140.58 134.38 139.7 133.49C138.82 132.61 137.39 132.61 136.5 133.49Z" fill="#002346"/>
  <path d="M138.09 158.889C139.614 158.889 140.85 157.653 140.85 156.129C140.85 154.605 139.614 153.369 138.09 153.369C136.566 153.369 135.33 154.605 135.33 156.129C135.33 157.653 136.566 158.889 138.09 158.889Z" fill="white"/>
  <path d="M138.1 159.39C137.85 159.39 137.6 159.36 137.35 159.3C135.6 158.89 134.51 157.13 134.92 155.38C135.33 153.63 137.09 152.54 138.84 152.95C140.59 153.36 141.68 155.12 141.27 156.87C141.07 157.72 140.55 158.44 139.81 158.9C139.29 159.22 138.7 159.39 138.1 159.39ZM138.1 153.87C137.08 153.87 136.14 154.57 135.9 155.61C135.76 156.2 135.86 156.8 136.18 157.32C136.5 157.84 137 158.19 137.58 158.33C138.16 158.47 138.77 158.37 139.29 158.05C139.8 157.73 140.16 157.23 140.3 156.65C140.59 155.44 139.83 154.22 138.62 153.93C138.45 153.89 138.27 153.87 138.1 153.87Z" fill="#002346"/>
  <path d="M138.1 179.91C139.624 179.91 140.86 178.674 140.86 177.15C140.86 175.625 139.624 174.39 138.1 174.39C136.576 174.39 135.34 175.625 135.34 177.15C135.34 178.674 136.576 179.91 138.1 179.91Z" fill="white"/>
  <path d="M138.1 180.42C137.85 180.42 137.6 180.39 137.35 180.33C135.6 179.92 134.51 178.16 134.92 176.41C135.33 174.66 137.09 173.57 138.84 173.98C140.59 174.39 141.68 176.15 141.27 177.9C140.92 179.4 139.57 180.41 138.1 180.41V180.42ZM135.9 176.64C135.76 177.23 135.86 177.83 136.18 178.35C136.5 178.87 137 179.22 137.58 179.36C138.79 179.65 140.01 178.89 140.3 177.68C140.59 176.47 139.83 175.25 138.62 174.96C137.41 174.67 136.19 175.43 135.9 176.64Z" fill="#002346"/>
  <path d="M138.1 200.951C139.624 200.951 140.86 199.715 140.86 198.191C140.86 196.666 139.624 195.431 138.1 195.431C136.576 195.431 135.34 196.666 135.34 198.191C135.34 199.715 136.576 200.951 138.1 200.951Z" fill="white"/>
  <path d="M138.1 201.45C137.23 201.45 136.41 201.11 135.79 200.49C134.52 199.22 134.52 197.15 135.79 195.88C137.06 194.61 139.13 194.61 140.4 195.88C141.67 197.15 141.67 199.22 140.4 200.49C139.78 201.11 138.97 201.45 138.09 201.45H138.1ZM136.5 196.59C135.62 197.47 135.62 198.91 136.5 199.79C137.38 200.67 138.84 200.64 139.7 199.79C140.58 198.91 140.58 197.48 139.7 196.59C138.82 195.71 137.38 195.71 136.5 196.59Z" fill="#002346"/>
  <path d="M140.786 219.852C141.135 218.368 140.215 216.882 138.732 216.533C137.248 216.184 135.762 217.104 135.413 218.588C135.064 220.072 135.984 221.557 137.467 221.907C138.951 222.256 140.437 221.336 140.786 219.852Z" fill="white"/>
  <path d="M138.1 222.48C137.85 222.48 137.6 222.45 137.35 222.39C135.6 221.98 134.51 220.22 134.92 218.47C135.33 216.72 137.09 215.63 138.84 216.04C140.59 216.45 141.68 218.21 141.27 219.96C140.92 221.46 139.57 222.47 138.1 222.47V222.48ZM135.9 218.7C135.76 219.29 135.86 219.89 136.18 220.41C136.5 220.93 137 221.28 137.58 221.42C138.79 221.71 140.01 220.95 140.3 219.74C140.59 218.53 139.83 217.31 138.62 217.02C137.41 216.73 136.19 217.49 135.9 218.7Z" fill="#002346"/>
  <path d="M50.9701 128.08C50.9801 135.46 45.0101 141.46 37.6201 141.47C33.3801 141.47 29.3901 139.48 26.8701 136.08C33.5301 128.59 39.9901 122.22 45.3901 117.24C48.8901 119.74 50.9701 123.78 50.9701 128.08Z" fill="white"/>
  <path d="M37.6 141.97C33.23 141.97 29.07 139.88 26.47 136.37L26.23 136.04L26.5 135.74C32.28 129.24 38.52 122.89 45.05 116.86L45.35 116.58L45.68 116.82C49.3 119.41 51.47 123.61 51.47 128.07C51.48 135.72 45.27 141.95 37.62 141.96H37.6V141.97ZM27.52 136.1C29.95 139.16 33.69 140.97 37.6 140.97H37.62C44.72 140.96 50.48 135.17 50.47 128.08C50.47 124.08 48.59 120.3 45.43 117.89C39.14 123.71 33.12 129.84 27.52 136.11V136.1Z" fill="#002346"/>
  <path d="M224.33 140.4C218.03 144.26 209.79 142.28 205.93 135.97C202.07 129.67 204.05 121.43 210.36 117.57C210.77 117.32 211.2 117.09 211.63 116.88C215.23 123.01 219.77 131.15 224.33 140.39V140.4Z" fill="white"/>
  <path d="M217.36 142.86C212.68 142.86 208.11 140.5 205.5 136.23C203.56 133.07 202.98 129.34 203.84 125.74C204.71 122.14 206.93 119.08 210.09 117.15C210.52 116.89 210.96 116.65 211.41 116.44L211.82 116.25L212.05 116.64C216.62 124.42 220.9 132.34 224.77 140.18L224.97 140.59L224.58 140.83C222.32 142.21 219.83 142.87 217.36 142.87V142.86ZM211.43 117.54C211.15 117.68 210.88 117.84 210.62 118C204.56 121.71 202.65 129.65 206.36 135.71C209.99 141.64 217.67 143.59 223.68 140.2C219.94 132.65 215.82 125.03 211.44 117.54H211.43Z" fill="#002346"/>
  <path d="M394.69 583.21C392.29 571.21 367.08 573.21 367.08 573.21C367.08 573.21 382.69 515.98 376.68 506.38C370.67 496.78 357.47 498.11 357.47 498.11C357.47 498.11 358.27 462.89 357.47 453.28C356.67 443.67 345.73 433.28 345.73 433.28L339.86 419.72C341.8 416.13 343.15 412.26 343.86 408.24C344.92 401.84 335.32 369.02 335.32 369.02C342.79 363.69 338.79 341.02 338.79 341.02C330.52 345.02 327.32 362.36 327.32 362.36H299.04C299.04 362.36 295.84 345.02 287.57 341.02C287.57 341.02 283.57 363.7 291.04 369.02C291.04 369.02 281.44 401.84 282.5 408.24C283.2 412.25 284.54 416.13 286.47 419.72L280.61 433.32C280.61 433.32 269.67 443.73 268.87 453.32C268.07 462.91 268.87 498.15 268.87 498.15C268.87 498.15 255.66 496.81 249.66 506.42C243.66 516.03 259.26 573.25 259.26 573.25C259.26 573.25 234.05 571.25 231.65 583.25C229.25 595.25 249.26 592.86 249.26 592.86H377.08C377.08 592.86 397.09 595.22 394.69 583.21Z" fill="#E3A008"/>
  <path d="M245.32 593.56C241.41 593.56 235.61 592.98 232.72 589.84C231.14 588.13 230.62 585.88 231.16 583.15C233.42 571.86 254.37 572.47 258.6 572.7C256.78 565.92 243.48 515.38 249.24 506.15C254.62 497.53 265.74 497.49 268.36 497.61C268.26 493.11 267.63 462.13 268.37 453.27C269.15 443.91 279.14 434.04 280.19 433.02L285.92 419.73C284.02 416.15 282.71 412.31 282.01 408.31C280.99 402.14 289.4 372.86 290.47 369.2C283.21 363.41 286.92 341.85 287.08 340.92L287.19 340.27L287.79 340.56C295.57 344.33 298.9 359.12 299.45 361.85H326.91C327.46 359.12 330.79 344.33 338.57 340.56L339.17 340.27L339.28 340.92C339.44 341.85 343.15 363.4 335.89 369.2C336.95 372.86 345.37 402.15 344.35 408.31C343.64 412.31 342.32 416.15 340.41 419.73L346.14 432.97C347.19 433.98 357.18 443.84 357.96 453.22C358.7 462.09 358.07 493.06 357.97 497.56C360.59 497.44 371.7 497.49 377.09 506.1C382.86 515.32 369.55 565.87 367.73 572.65C371.95 572.41 392.91 571.81 395.16 583.1C395.71 585.84 395.18 588.09 393.6 589.81C389.08 594.71 377.49 593.41 377 593.35H249.24C249.08 593.37 247.49 593.56 245.3 593.56H245.32ZM255.39 573.63C248.34 573.63 233.87 574.7 232.14 583.35C231.66 585.75 232.1 587.71 233.45 589.17C237.62 593.69 249.08 592.38 249.2 592.37H377.08C377.25 592.38 388.71 593.67 392.89 589.14C394.24 587.68 394.68 585.71 394.2 583.31C391.91 571.88 367.37 573.69 367.12 573.71L366.41 573.77L366.6 573.08C366.76 572.51 382.08 515.95 376.26 506.65C370.48 497.42 357.65 498.6 357.52 498.61L356.96 498.67V498.1C356.98 497.75 357.76 462.8 356.97 453.32C356.19 444.01 345.49 433.74 345.38 433.64L345.27 433.48L339.3 419.7L339.42 419.49C341.34 415.94 342.67 412.13 343.37 408.16C344.4 401.95 334.94 369.49 334.84 369.17L334.74 368.83L335.03 368.62C341.45 364.04 338.99 345.59 338.41 341.8C330.9 346.18 327.85 362.29 327.81 362.46L327.73 362.87H298.62L298.54 362.46C298.51 362.29 295.45 346.18 287.94 341.8C287.36 345.6 284.9 364.05 291.32 368.62L291.61 368.83L291.51 369.17C291.41 369.5 281.95 401.95 282.98 408.17C283.67 412.13 284.99 415.95 286.9 419.49L287.01 419.7L280.94 433.69C280.83 433.79 270.13 444.08 269.35 453.37C268.56 462.82 269.35 497.8 269.35 498.15V498.72L268.8 498.66C268.67 498.65 255.83 497.47 250.06 506.7C244.24 516.02 259.56 572.56 259.72 573.13L259.91 573.82L259.2 573.76C259.14 573.76 257.64 573.64 255.37 573.64L255.39 573.63Z" fill="#002346"/>
  <path d="M280.64 433.27L314.32 453.43L345.73 433.27L342.7 426.25L314.89 443.56L283.66 426.25L280.64 433.27Z" fill="#F69074"/>
  <path d="M314.33 454.01L280.01 433.47L283.42 425.54L314.88 442.98L342.93 425.52L346.36 433.46L314.33 454.02V454.01ZM281.27 433.06L314.31 452.84L345.1 433.08L342.47 426.98L314.9 444.14L283.9 426.96L281.27 433.07V433.06Z" fill="#002346"/>
  <path d="M374.18 593.22H323.47C323.33 593.22 323.2 593.16 323.11 593.06C323.02 592.96 322.97 592.82 322.98 592.69L328.82 498.11C328.84 497.84 329.09 497.64 329.35 497.64C329.63 497.66 329.84 497.89 329.82 498.17L324.01 592.21H373.72C373.79 590.55 373.72 584.67 369.89 580.21C367.02 576.86 362.67 575.01 356.95 574.71C356.68 574.7 356.47 574.47 356.48 574.21L356.98 498.09C356.98 497.82 357.21 497.59 357.48 497.59C357.76 497.59 357.98 497.82 357.98 498.09L357.48 573.73C363.25 574.12 367.68 576.08 370.66 579.56C375.41 585.11 374.72 592.45 374.69 592.76C374.66 593.02 374.45 593.21 374.19 593.21L374.18 593.22Z" fill="#002346"/>
  <path d="M307.32 399.39H319.02C322.56 399.39 319.33 404.36 318.07 406.12C317.81 406.48 317.4 406.69 316.95 406.71C316.1 406.75 314.75 407.08 314.82 408.73C314.26 409.48 313.2 409.62 312.45 409.06C312.32 408.96 312.21 408.85 312.12 408.73C312.12 408.73 312.21 406.33 309.6 406.45C309.14 406.47 308.7 406.28 308.42 405.92C307.21 404.38 304.43 400.41 307.32 399.39Z" fill="#002346"/>
  <path d="M313.46 409.9C312.99 409.9 312.53 409.75 312.15 409.46C311.99 409.34 311.84 409.19 311.72 409.03L311.61 408.89V408.71C311.61 408.71 311.63 407.9 311.11 407.39C310.78 407.06 310.28 406.92 309.62 406.94C309 406.96 308.4 406.7 308.02 406.22C306.91 404.81 305.12 402.18 305.64 400.39C305.78 399.91 306.16 399.26 307.15 398.91L307.32 398.88H319.02C320.2 398.88 320.7 399.39 320.92 399.81C321.7 401.33 320.02 404.23 318.47 406.4C318.13 406.88 317.58 407.17 316.97 407.2C315.25 407.29 315.3 408.35 315.31 408.7V408.88L315.21 409.02C314.86 409.49 314.35 409.79 313.77 409.87C313.67 409.88 313.56 409.89 313.46 409.89V409.9ZM312.61 408.54C312.61 408.54 312.7 408.63 312.75 408.66C313 408.85 313.32 408.93 313.63 408.89C313.89 408.85 314.13 408.73 314.31 408.55C314.34 407.16 315.3 406.29 316.92 406.21C317.23 406.19 317.5 406.06 317.66 405.83C319.5 403.24 320.44 401.06 320.03 400.28C319.9 400.02 319.56 399.89 319.02 399.89H307.41C306.97 400.06 306.71 400.32 306.6 400.68C306.32 401.66 307.14 403.5 308.81 405.61C308.99 405.84 309.26 405.96 309.58 405.95C310.53 405.9 311.29 406.16 311.83 406.69C312.46 407.32 312.59 408.15 312.62 408.54H312.61Z" fill="#002346"/>
  <path d="M303.03 394.96C304.643 394.96 305.95 393.653 305.95 392.04C305.95 390.427 304.643 389.12 303.03 389.12C301.417 389.12 300.11 390.427 300.11 392.04C300.11 393.653 301.417 394.96 303.03 394.96Z" fill="#002346"/>
  <path d="M297.11 386.92C298.13 386.65 299.2 386.63 300.24 386.84C301.31 387.04 302.32 387.43 303.24 388.01C304.18 388.6 304.95 389.41 305.5 390.37C306.05 391.32 306.26 392.43 306.09 393.52C305.54 392.73 304.92 391.99 304.24 391.31C303.6 390.71 302.9 390.17 302.16 389.69C301.41 389.21 300.61 388.77 299.78 388.33C298.95 387.89 298.03 387.45 297.11 386.92Z" fill="#002346"/>
  <path d="M322.94 394.96C324.553 394.96 325.86 393.653 325.86 392.04C325.86 390.427 324.553 389.12 322.94 389.12C321.327 389.12 320.02 390.427 320.02 392.04C320.02 393.653 321.327 394.96 322.94 394.96Z" fill="#002346"/>
  <path d="M328.86 386.92C327.93 387.45 327.07 387.92 326.23 388.33C325.39 388.74 324.6 389.21 323.85 389.69C323.11 390.17 322.41 390.71 321.77 391.31C321.09 391.99 320.47 392.73 319.92 393.52C319.75 392.43 319.96 391.32 320.51 390.37C321.06 389.41 321.83 388.6 322.76 388.01C323.68 387.44 324.7 387.04 325.76 386.84C326.79 386.63 327.85 386.66 328.86 386.92Z" fill="#002346"/>
  <path d="M318.67 453.72L327.49 455.24L320.92 461.32L322.2 470.18L314.39 465.8L306.36 469.76L308.1 460.98L301.86 454.56L310.75 453.51L314.92 445.59L318.67 453.72Z" fill="white"/>
  <path d="M322.84 471.11L314.38 466.36L305.68 470.65L307.57 461.13L300.81 454.17L310.44 453.03L314.96 444.45L319.02 453.26L328.58 454.91L321.46 461.5L322.85 471.1L322.84 471.11ZM314.41 465.23L321.57 469.24L320.4 461.12L326.42 455.55L318.34 454.16L314.9 446.71L311.08 453.97L302.93 454.93L308.65 460.81L307.06 468.85L314.42 465.22L314.41 465.23Z" fill="#002346"/>
  <path d="M316.24 444.829C316.26 445.549 315.69 446.159 314.97 446.179C314.25 446.199 313.64 445.629 313.62 444.909C313.6 444.189 314.17 443.579 314.89 443.559C315.61 443.539 316.21 444.109 316.24 444.829Z" fill="white"/>
  <path d="M314.93 446.67C314.47 446.67 314.03 446.5 313.69 446.18C313.34 445.85 313.14 445.4 313.12 444.92C313.09 443.92 313.88 443.09 314.87 443.06C314.88 443.06 314.9 443.06 314.91 443.06C315.88 443.06 316.7 443.84 316.73 444.81C316.74 445.3 316.57 445.76 316.24 446.11C315.91 446.46 315.46 446.66 314.98 446.68C314.96 446.68 314.94 446.68 314.92 446.68L314.93 446.67ZM314.93 444.05C314.93 444.05 314.92 444.05 314.91 444.05C314.47 444.06 314.12 444.44 314.13 444.88C314.13 445.1 314.23 445.3 314.38 445.44C314.53 445.58 314.75 445.68 314.96 445.66C315.18 445.66 315.38 445.56 315.53 445.41C315.68 445.25 315.76 445.05 315.75 444.83C315.73 444.39 315.37 444.04 314.93 444.04V444.05Z" fill="#002346"/>
  <path d="M328.8 455.2C328.82 455.92 328.25 456.53 327.53 456.55C326.81 456.57 326.2 456 326.18 455.28C326.16 454.56 326.73 453.95 327.45 453.93C328.17 453.91 328.78 454.48 328.8 455.2Z" fill="white"/>
  <path d="M327.49 457.04C326.52 457.04 325.71 456.26 325.68 455.28C325.65 454.28 326.44 453.45 327.43 453.42C327.93 453.42 328.37 453.58 328.73 453.91C329.08 454.24 329.28 454.69 329.3 455.17C329.33 456.17 328.54 457 327.55 457.04C327.53 457.04 327.51 457.04 327.49 457.04ZM327.49 454.42C327.49 454.42 327.47 454.42 327.46 454.42C327.01 454.43 326.66 454.81 326.68 455.25C326.7 455.69 327.07 456.06 327.51 456.03C327.96 456.02 328.31 455.64 328.3 455.2C328.3 454.98 328.2 454.78 328.05 454.63C327.9 454.49 327.7 454.41 327.5 454.41L327.49 454.42Z" fill="#002346"/>
  <path d="M301.63 456.08C302.353 456.08 302.94 455.493 302.94 454.77C302.94 454.046 302.353 453.46 301.63 453.46C300.906 453.46 300.32 454.046 300.32 454.77C300.32 455.493 300.906 456.08 301.63 456.08Z" fill="white"/>
  <path d="M301.63 456.58C301.3 456.58 300.98 456.49 300.69 456.32C300.28 456.07 299.99 455.67 299.87 455.2C299.76 454.73 299.83 454.24 300.08 453.83C300.33 453.42 300.73 453.13 301.2 453.01C302.17 452.78 303.15 453.37 303.39 454.34C303.5 454.81 303.43 455.3 303.18 455.71C302.93 456.12 302.53 456.41 302.06 456.53C301.92 456.56 301.77 456.58 301.63 456.58ZM301.44 453.98C301.23 454.03 301.05 454.16 300.94 454.35C300.83 454.54 300.79 454.75 300.84 454.96C300.89 455.17 301.02 455.35 301.21 455.46C301.4 455.57 301.61 455.61 301.82 455.56C302.03 455.51 302.21 455.38 302.32 455.19C302.43 455.01 302.47 454.79 302.42 454.58C302.32 454.15 301.88 453.88 301.44 453.98Z" fill="#002346"/>
  <path d="M322.23 471.519C322.953 471.519 323.54 470.933 323.54 470.209C323.54 469.486 322.953 468.899 322.23 468.899C321.506 468.899 320.92 469.486 320.92 470.209C320.92 470.933 321.506 471.519 322.23 471.519Z" fill="white"/>
  <path d="M322.22 472.02C321.89 472.02 321.57 471.93 321.28 471.76C320.87 471.51 320.58 471.11 320.46 470.64C320.22 469.67 320.82 468.69 321.79 468.45C322.26 468.34 322.75 468.41 323.16 468.66C323.57 468.91 323.86 469.31 323.98 469.78C324.1 470.25 324.02 470.74 323.77 471.15C323.52 471.56 323.12 471.85 322.65 471.97C322.51 472 322.36 472.02 322.22 472.02ZM322.03 469.42C321.6 469.53 321.33 469.96 321.43 470.4C321.48 470.61 321.61 470.79 321.8 470.9C321.98 471.01 322.2 471.05 322.41 471C322.62 470.95 322.8 470.82 322.91 470.63C323.02 470.44 323.06 470.23 323.01 470.02C322.96 469.81 322.83 469.63 322.64 469.52C322.45 469.41 322.24 469.37 322.03 469.42Z" fill="#002346"/>
  <path d="M307.82 469.57C307.84 470.29 307.27 470.9 306.55 470.92C305.83 470.94 305.22 470.37 305.2 469.65C305.18 468.93 305.75 468.32 306.47 468.3C307.19 468.28 307.8 468.85 307.82 469.57Z" fill="white"/>
  <path d="M306.51 471.42C305.54 471.42 304.73 470.64 304.7 469.66C304.67 468.66 305.46 467.83 306.45 467.8C306.94 467.79 307.39 467.96 307.75 468.29C308.1 468.62 308.3 469.07 308.32 469.55C308.35 470.55 307.56 471.38 306.57 471.42C306.55 471.42 306.53 471.42 306.52 471.42H306.51ZM306.51 468.8H306.49C306.04 468.81 305.69 469.19 305.71 469.63C305.72 470.08 306.06 470.43 306.54 470.41C306.99 470.4 307.34 470.02 307.32 469.58C307.31 469.14 306.95 468.79 306.51 468.79V468.8Z" fill="#002346"/>
  <g opacity="0.2">
  <path d="M295.18 364.91C295.18 364.91 294.34 355.28 288.36 348.49C288.36 348.49 286.63 365.03 292.7 368.97L295.18 364.91Z" fill="black"/>
  </g>
  <g opacity="0.2">
  <path d="M331.65 364.91C331.65 364.91 332.48 355.28 338.47 348.49C338.47 348.49 340.2 365.03 334.12 368.97L331.65 364.91Z" fill="black"/>
  </g>
  <path d="M302.97 593.36H252.04C251.91 593.36 251.78 593.31 251.68 593.21C251.58 593.11 251.53 592.98 251.54 592.85C251.68 586.47 253.54 581.6 257.06 578.36C261.2 574.56 266.32 574.21 267.97 574.2L268.37 498.13C268.37 497.85 268.6 497.63 268.87 497.63C269.15 497.63 269.37 497.86 269.37 498.13L268.97 574.71C268.97 574.85 268.91 574.98 268.81 575.07C268.71 575.16 268.57 575.21 268.44 575.2C268.38 575.2 262.31 574.88 257.73 579.09C254.52 582.05 252.78 586.51 252.56 592.34H302.44L296.54 498.15C296.52 497.87 296.73 497.64 297.01 497.62C297.28 497.6 297.52 497.81 297.54 498.09L303.47 592.81C303.47 592.95 303.43 593.08 303.34 593.18C303.25 593.28 303.11 593.34 302.98 593.34L302.97 593.36Z" fill="#002346"/>
  <path d="M321.2 432.93H305.63C303.33 432.93 301.07 432.13 299.28 430.69L286.16 420.1C285.95 419.93 285.91 419.61 286.08 419.4C286.25 419.19 286.57 419.15 286.78 419.32L299.9 429.91C301.52 431.21 303.55 431.93 305.63 431.93H321.2C323.34 431.93 325.43 431.17 327.07 429.79L339.51 419.34C339.72 419.16 340.04 419.19 340.21 419.4C340.39 419.61 340.36 419.93 340.15 420.1L327.71 430.55C325.89 432.08 323.58 432.92 321.2 432.92V432.93Z" fill="#002346"/>
  <path d="M308.04 421.37C304.42 421.37 301.34 418.01 301.2 417.86C301.01 417.66 301.03 417.34 301.24 417.15C301.44 416.97 301.76 416.98 301.95 417.19C301.98 417.22 305.12 420.64 308.42 420.36C310.06 420.23 311.51 419.21 312.73 417.34C312.82 417.2 312.98 417.12 313.14 417.11C313.3 417.13 313.46 417.19 313.56 417.32C313.58 417.35 315.5 420.06 318.48 420.27C320.52 420.41 322.62 419.38 324.7 417.17C324.89 416.97 325.21 416.96 325.41 417.15C325.61 417.34 325.62 417.66 325.43 417.86C323.12 420.3 320.76 421.44 318.4 421.27C315.82 421.08 313.98 419.35 313.18 418.44C311.86 420.23 310.28 421.21 308.49 421.35C308.34 421.36 308.19 421.37 308.04 421.37Z" fill="#002346"/>
  <path d="M313.15 418.11C312.87 418.11 312.65 417.89 312.65 417.61V404.4C312.65 404.12 312.87 403.9 313.15 403.9C313.43 403.9 313.65 404.12 313.65 404.4V417.61C313.65 417.89 313.43 418.11 313.15 418.11Z" fill="#002346"/>
  <path d="M295.71 406.43C295.61 406.43 295.51 406.4 295.42 406.34C295.19 406.18 295.14 405.87 295.3 405.64C295.61 405.21 302.91 395.04 313.73 394.64C320.52 394.39 327.11 398.08 333.32 405.61C333.5 405.82 333.47 406.14 333.25 406.31C333.04 406.49 332.72 406.46 332.55 406.24C326.55 398.96 320.23 395.4 313.77 395.64C303.45 396.02 296.2 406.11 296.12 406.22C296.02 406.36 295.87 406.43 295.71 406.43Z" fill="#002346"/>
</svg>
