<svg width="872" height="304" viewBox="0 0 872 304" fill="none" xmlns="http://www.w3.org/2000/svg">
<g clip-path="url(#clip0_2072_170000)">
<path d="M864.076 270.161C864.076 275.101 845.713 279.275 820.276 280.721C814.101 281.071 807.52 281.268 800.687 281.268C793.329 281.268 786.266 281.049 779.696 280.644C755.004 279.121 737.298 275.003 737.298 270.161C737.298 265.32 756.197 260.917 782.193 259.537C788.04 259.23 794.237 259.055 800.687 259.055C808.429 259.055 815.853 259.307 822.707 259.745C846.874 261.311 864.076 265.375 864.076 270.161Z" fill="#61CCFF"/>
<g opacity="0.2">
<path d="M864.076 270.161C864.076 275.101 845.713 279.275 820.276 280.721C814.101 281.071 807.52 281.268 800.687 281.268C793.329 281.268 786.266 281.049 779.696 280.644C755.004 279.121 737.298 275.003 737.298 270.161C737.298 265.32 756.197 260.917 782.193 259.537C788.04 259.23 794.237 259.055 800.687 259.055C808.429 259.055 815.853 259.307 822.707 259.745C846.874 261.311 864.076 265.375 864.076 270.161Z" fill="white"/>
</g>
<path d="M679.395 268.554C679.395 280.91 638.113 291.743 575.973 297.877C541.743 301.272 501.174 303.222 457.714 303.222C412.819 303.222 371.056 301.141 336.169 297.548C275.857 291.349 236.043 280.691 236.043 268.554C236.043 256.418 275.857 245.76 336.169 239.561C371.067 235.968 412.819 233.887 457.714 233.887C501.185 233.887 541.754 235.836 575.973 239.232C638.113 245.366 679.395 256.199 679.395 268.554Z" fill="#61CCFF"/>
<g opacity="0.2">
<path d="M679.395 268.554C679.395 280.91 638.113 291.743 575.973 297.877C541.743 301.272 501.174 303.222 457.714 303.222C412.819 303.222 371.056 301.141 336.169 297.548C275.857 291.349 236.043 280.691 236.043 268.554C236.043 256.418 275.857 245.76 336.169 239.561C371.067 235.968 412.819 233.887 457.714 233.887C501.185 233.887 541.754 235.836 575.973 239.232C638.113 245.366 679.395 256.199 679.395 268.554Z" fill="white"/>
</g>
<path d="M569.512 191.988H581.765C583.693 191.988 585.543 192.755 586.906 194.119C588.27 195.483 589.036 197.332 589.036 199.261V227.017C589.036 228.946 588.27 230.796 586.906 232.16C585.543 233.524 583.693 234.291 581.765 234.291H569.512V191.988Z" fill="#3C2C5B"/>
<path d="M341.743 234.279H329.457C327.529 234.279 325.68 233.513 324.316 232.149C322.953 230.785 322.187 228.935 322.187 227.006V199.25C322.187 197.321 322.953 195.471 324.316 194.107C325.68 192.743 327.529 191.977 329.457 191.977H341.743V234.279Z" fill="#3C2C5B"/>
<path d="M337.987 192.306H336.892V189.348C336.887 183.578 334.592 178.045 330.513 173.965C326.434 169.884 320.904 167.589 315.135 167.584L259.652 167.923V166.828L315.146 166.488C321.205 166.494 327.014 168.904 331.299 173.19C335.583 177.476 337.992 183.287 337.998 189.348L337.987 192.306Z" fill="#3C2C5B"/>
<path d="M570.695 189.04H569.6V187.485C569.606 181.426 572.014 175.616 576.296 171.331C580.578 167.045 586.384 164.634 592.441 164.625L647.936 164.975V166.071L592.441 165.72C586.675 165.729 581.147 168.025 577.07 172.105C572.993 176.185 570.701 181.716 570.695 187.485V189.04Z" fill="#3C2C5B"/>
<path d="M241.562 159.949H224.809V161.045H241.562V159.949Z" fill="#3C2C5B"/>
<path d="M241.562 176.129H224.809V177.224H241.562V176.129Z" fill="#3C2C5B"/>
<path d="M253.64 282.343H252.545V224.191H322.198V225.287H253.64V282.343Z" fill="#3C2C5B"/>
<path d="M655.305 284.01H654.21V223.689H588.554V222.594H655.305V284.01Z" fill="#3C2C5B"/>
<path d="M222.608 271.29C222.608 276.219 204.245 280.404 178.808 281.839L176.618 281.959C171.078 282.233 165.231 282.386 159.197 282.386C152.244 282.386 145.543 282.2 139.279 281.828C138.918 281.828 138.557 281.828 138.184 281.762C113.492 280.239 95.7861 276.132 95.7861 271.29C95.7861 266.449 113.996 262.199 139.257 260.742L140.681 260.666C146.517 260.348 152.726 260.184 159.175 260.184C165.22 260.184 171.067 260.337 176.597 260.611C178.162 260.687 179.684 260.775 181.195 260.874C205.428 262.429 222.608 266.493 222.608 271.29Z" fill="#61CCFF"/>
<g opacity="0.2">
<path d="M222.608 271.29C222.608 276.219 204.245 280.404 178.808 281.839L176.618 281.959C171.078 282.233 165.231 282.386 159.197 282.386C152.244 282.386 145.543 282.2 139.279 281.828C138.918 281.828 138.557 281.828 138.184 281.762C113.492 280.239 95.7861 276.132 95.7861 271.29C95.7861 266.449 113.996 262.199 139.257 260.742L140.681 260.666C146.517 260.348 152.726 260.184 159.175 260.184C165.22 260.184 171.067 260.337 176.597 260.611C178.162 260.687 179.684 260.775 181.195 260.874C205.428 262.429 222.608 266.493 222.608 271.29Z" fill="white"/>
</g>
<path d="M831.226 190.565L855.743 5.94478L810.849 0.402344L653.17 171.605L650.848 197.05L787.306 216.492L782.236 259.539L779.74 280.646C786.31 281.052 793.372 281.271 800.731 281.271C807.564 281.271 814.144 281.074 820.32 280.723L822.751 259.747L827.131 222.505L868.303 227.128L871.588 194.267L831.226 190.565ZM792.518 185.998L695.469 170.378L810.925 44.8296L792.518 185.998Z" fill="#0D38C7"/>
<path d="M176.684 191.284V7.16797H131.997L0.532715 197.594V224.419H139.389V281.826C145.652 282.198 152.353 282.384 159.307 282.384C165.34 282.384 171.187 282.231 176.728 281.957V223.356H219.849V191.284H176.684ZM139.356 192.38L44.1681 191.284L139.389 48.1995L139.356 192.38Z" fill="#0D38C7"/>
<path d="M665.904 140.418C661.601 140.418 657.395 141.694 653.817 144.086C650.239 146.477 647.45 149.877 645.803 153.854C644.156 157.83 643.726 162.207 644.565 166.428C645.405 170.65 647.477 174.528 650.52 177.572C653.562 180.616 657.439 182.689 661.66 183.529C665.88 184.369 670.255 183.938 674.231 182.29C678.206 180.643 681.604 177.853 683.995 174.274C686.386 170.695 687.662 166.487 687.662 162.182C687.662 156.41 685.37 150.874 681.289 146.793C677.209 142.711 671.675 140.418 665.904 140.418ZM665.784 149.947C671.259 149.947 675.639 151.722 675.639 153.902C675.639 156.081 671.259 157.856 665.784 157.856C660.309 157.856 655.929 156.081 655.929 153.902C655.929 151.722 660.331 149.947 665.784 149.947ZM666.036 174.406C660.561 174.406 656.181 172.643 656.181 170.463C656.181 168.284 660.561 166.509 666.036 166.509C671.511 166.509 675.891 168.273 675.891 170.463C675.891 172.654 671.489 174.406 666.08 174.406H666.036Z" fill="#61CCFF"/>
<path d="M461.798 80.043H450.312V111.184H461.798V80.043Z" fill="#0D38C7"/>
<path d="M575.973 223.982V297.874C541.743 301.27 501.174 303.22 457.714 303.22C412.819 303.22 371.056 301.139 336.17 297.546V223.982C336.17 192.171 348.802 161.663 371.287 139.168C393.773 116.673 424.27 104.034 456.071 104.031C487.872 104.034 518.37 116.673 540.855 139.168C563.341 161.663 575.973 192.171 575.973 223.982Z" fill="#0D38C7"/>
<path d="M523.413 157.758H388.828C359.806 157.758 336.279 181.292 336.279 210.323V215.559C336.279 244.59 359.806 268.125 388.828 268.125H523.413C552.435 268.125 575.962 244.59 575.962 215.559V210.323C575.962 181.292 552.435 157.758 523.413 157.758Z" fill="#61CCFF"/>
<g opacity="0.1">
<path d="M519.997 169.184H389.069C366.215 169.184 347.689 187.716 347.689 210.577V214.684C347.689 237.545 366.215 256.077 389.069 256.077H519.997C542.85 256.077 561.377 237.545 561.377 214.684V210.577C561.377 187.716 542.85 169.184 519.997 169.184Z" fill="black"/>
</g>
<path d="M410.618 231.55C420.282 231.55 428.116 223.714 428.116 214.047C428.116 204.38 420.282 196.543 410.618 196.543C400.954 196.543 393.12 204.38 393.12 214.047C393.12 223.714 400.954 231.55 410.618 231.55Z" fill="white"/>
<path d="M497.002 231.55C506.666 231.55 514.5 223.714 514.5 214.047C514.5 204.38 506.666 196.543 497.002 196.543C487.338 196.543 479.504 204.38 479.504 214.047C479.504 223.714 487.338 231.55 497.002 231.55Z" fill="white"/>
<path d="M500.637 221.09C504.278 221.09 507.229 218.138 507.229 214.496C507.229 210.855 504.278 207.902 500.637 207.902C496.997 207.902 494.045 210.855 494.045 214.496C494.045 218.138 496.997 221.09 500.637 221.09Z" fill="#3C2C5B"/>
<path d="M408.351 217.454C411.992 217.454 414.943 214.501 414.943 210.86C414.943 207.218 411.992 204.266 408.351 204.266C404.711 204.266 401.76 207.218 401.76 210.86C401.76 214.501 404.711 217.454 408.351 217.454Z" fill="#3C2C5B"/>
<path d="M456.06 88.2041C465.579 88.2041 473.296 80.4852 473.296 70.9634C473.296 61.4416 465.579 53.7227 456.06 53.7227C446.542 53.7227 438.825 61.4416 438.825 70.9634C438.825 80.4852 446.542 88.2041 456.06 88.2041Z" fill="#0D38C7"/>
<path d="M239.591 151.133H249.523C252.299 151.133 254.962 152.236 256.925 154.2C258.888 156.164 259.991 158.827 259.991 161.604V174.891C259.991 177.668 258.888 180.332 256.925 182.295C254.962 184.259 252.299 185.362 249.523 185.362H239.591V151.133Z" fill="#61CCFF"/>
</g>
<defs>
<clipPath id="clip0_2072_170000">
<rect width="872" height="304" fill="white"/>
</clipPath>
</defs>
</svg>
